# xmcd
#
# Track frame offsets:
#	150
#	22232
#	39747
#	55062
#	75035
#	96470
#	119282
#	141152
#	168637
#	189430
#	204712
#	237565
#	257555
#	331772
#
# Disc length: 4423 seconds
#
# Revision: 1
# Processed by: cddbd v1.4PL0 Copyright (c) Steve Scherf et al.
# Submitted via: audiograbber 1.82.02
#
DISCID=c311450e
DTITLE=PUR - Was ist passiert?
DYEAR=2003
DGENRE=
TTITLE0=Was ist passiert?
TTITLE1=Mehr als den Verstand
TTITLE2=Ich denk an Dich
TTITLE3=Letzte Ausfahrt
TTITLE4=Walzer für Dich
TTITLE5=Der Kreis
TTITLE6=Duett
TTITLE7=SAZ
TTITLE8=Leicht
TTITLE9=Doof
TTITLE10=Bitte lieber Gott
TTITLE11=Gut genug für Dich
TTITLE12=Bald seh ich Euch wieder
TTITLE13=Daten-CD
EXTD=
EXTT0=
EXTT1=
EXTT2=
EXTT3=
EXTT4=
EXTT5=
EXTT6=
EXTT7=
EXTT8=
EXTT9=
EXTT10=
EXTT11=
EXTT12=
EXTT13=
PLAYORDER=
